<svg width="277" height="43" viewBox="0 0 277 43" fill="none" xmlns="http://www.w3.org/2000/svg">
<path d="M45.7886 22.459C45.2048 21.8582 44.4971 21.3919 43.7147 21.0927C43.364 20.9555 43.3701 20.9616 43.3487 20.5742C43.3463 19.4963 43.2163 18.4224 42.9614 17.375C42.7693 16.7254 42.7296 16.027 42.5131 15.3865C42.2295 14.602 41.9016 13.8343 41.5311 13.087C41.0971 12.1711 40.7212 11.2289 40.4056 10.2659C40.3493 10.1505 40.3291 10.0208 40.3477 9.8938C40.3904 9.77206 40.4044 9.64209 40.3886 9.51404C40.3727 9.386 40.3274 9.26336 40.2562 9.15575C39.9756 8.62203 39.6829 8.09747 39.3809 7.5729C39.2667 7.37844 39.1066 7.21484 38.9147 7.09631C38.7229 6.97778 38.5049 6.90792 38.2799 6.8928C37.9475 6.8501 37.6212 6.78911 37.2918 6.72506C37.1637 6.70066 37.0417 6.64882 36.8557 6.59087L37.3254 6.22489L37.365 6.25538L37.1698 6.56036C37.2217 6.56036 37.2491 6.58171 37.2704 6.57561C37.3776 6.55036 37.4785 6.50342 37.5668 6.43764C37.6551 6.37185 37.7291 6.28865 37.7839 6.19317C37.8388 6.0977 37.8736 5.99198 37.886 5.88255C37.8983 5.77312 37.8882 5.66232 37.856 5.55698C37.5936 4.606 37.4039 3.6364 37.2887 2.65661C37.2332 2.25663 37.049 1.88557 36.764 1.59947C36.479 1.31338 36.1087 1.12778 35.7089 1.07071C35.5051 1.02484 35.2921 1.04296 35.099 1.12257C34.6673 1.31843 34.269 1.58086 33.9187 1.90027C33.636 2.16855 33.3721 2.45591 33.1288 2.76031C32.9312 3.01281 32.8383 3.33172 32.8696 3.65085C32.8879 3.90094 32.9794 4.09307 33.2996 4.08392C33.3272 4.35752 33.3404 4.63239 33.3392 4.90737C33.3163 5.29514 33.4236 5.67947 33.6442 5.99921C33.7144 6.109 33.7753 6.22183 33.8394 6.33163C33.8579 6.35846 33.8704 6.38904 33.8758 6.4212C33.8812 6.45336 33.8794 6.48632 33.8707 6.51773C33.862 6.54915 33.8464 6.57827 33.8252 6.60303C33.804 6.62779 33.7777 6.64758 33.7479 6.66101C33.6335 6.71788 33.5153 6.76678 33.3941 6.8074C33.2996 6.84399 33.1441 6.85619 33.1166 6.92024C32.9977 7.22522 32.7049 7.18557 32.4853 7.28622C31.9699 7.52105 31.5033 7.81383 31.366 8.40854C31.1739 9.21979 31.0122 10.0371 30.8323 10.8484C30.5701 12.0924 30.1733 13.3042 29.6489 14.4624C29.4141 14.9748 29.1915 15.4963 28.9994 16.027C28.7118 16.9595 28.3423 17.8647 27.8953 18.7322C27.8495 18.8097 27.8166 18.8942 27.7978 18.9822C27.6483 19.6837 27.264 20.318 27.2091 21.0469C27.1972 21.1101 27.1778 21.1715 27.1512 21.2299C26.8232 22.1785 26.3262 23.0599 25.6842 23.8314C25.4905 24.0858 25.3259 24.3609 25.1932 24.6518C25.1632 24.7424 25.1095 24.8233 25.0376 24.886C24.9657 24.9488 24.8783 24.9911 24.7845 25.0086L23.284 25.2923C23.2596 24.8897 23.284 24.8074 23.5676 24.5969C23.6432 24.5328 23.7001 24.4496 23.7323 24.356C23.9134 23.7934 23.9748 23.1992 23.9123 22.6115C23.9046 22.3131 23.7917 22.0271 23.5936 21.8039C23.3955 21.5807 23.1249 21.4346 22.8296 21.3916C22.7058 21.3594 22.5791 21.339 22.4514 21.3306C21.3566 21.3062 20.7131 21.6874 20.6216 22.7792C20.5508 23.3272 20.6103 23.8842 20.7954 24.4048C20.823 24.4875 20.8764 24.5592 20.9479 24.6091C21.2376 24.7616 21.2529 25.0056 21.2376 25.3075C21.1587 25.3177 21.0787 25.3177 20.9997 25.3075C20.6002 25.216 20.2006 25.1215 19.8072 25.0026C19.4942 24.9211 19.209 24.7565 18.9819 24.5261C18.7548 24.2958 18.5942 24.0083 18.5171 23.6942C18.467 23.5625 18.4459 23.4216 18.4554 23.281C18.4649 23.1405 18.5047 23.0036 18.5721 22.8799C18.7886 22.5042 18.9025 22.0783 18.9025 21.6447C18.9025 21.2111 18.7886 20.7852 18.5721 20.4095C18.197 19.6493 17.8759 18.8636 17.6114 18.0581C16.977 16.338 16.5805 14.5356 15.7998 12.8735C15.6605 12.4829 15.6115 12.0658 15.6565 11.6535C15.6565 11.5956 15.6778 11.5072 15.7205 11.4828C16.0255 11.3089 15.934 11.0405 15.8791 10.7996C15.6717 9.91211 15.4338 9.03376 15.2325 8.14627C15.1344 7.73214 14.9423 7.34617 14.6709 7.01826C14.3996 6.69036 14.0564 6.42932 13.668 6.25538C13.5582 6.19743 13.4423 6.14865 13.2959 6.07851C13.6649 5.68508 13.5857 5.07511 14.0706 4.77623C14.1377 4.73658 14.159 4.62373 14.1925 4.53834C14.2205 4.43278 14.274 4.33578 14.3485 4.25596C14.423 4.17614 14.5162 4.11598 14.6196 4.08087C14.6958 4.05952 14.7507 3.97107 14.7964 3.92838C14.7171 3.6234 14.6653 3.37333 14.5738 3.12324C14.4121 2.69322 14.2444 2.26013 14.0431 1.84841C13.8923 1.52984 13.6359 1.27337 13.3173 1.12257C12.9828 0.955412 12.6179 0.857868 12.2446 0.83585C11.8714 0.813833 11.4976 0.867787 11.1458 0.994465C10.2308 1.33604 9.80998 2.0863 9.62089 2.98294C9.52634 3.43432 9.51414 3.89789 9.46535 4.35841C9.45201 4.53292 9.39054 4.70031 9.28769 4.84192C9.18484 4.98354 9.04468 5.09383 8.88286 5.16051C8.18056 5.43312 7.46005 5.6563 6.72662 5.82842L6.6687 5.76742L6.89743 5.40754L6.85164 5.26114L7.18104 5.02937C6.98891 4.82503 6.92184 4.55665 6.6748 4.41941C6.61728 4.3673 6.57863 4.29757 6.56498 4.22117C6.50703 4.05038 6.46129 3.87654 6.41554 3.70575C6.25085 3.07749 5.98856 2.8518 5.34505 2.79081C5.19208 2.77507 5.0382 2.76998 4.88453 2.77556C4.48147 2.78086 4.09523 2.93799 3.80295 3.21557C3.51067 3.49315 3.33387 3.87076 3.3078 4.27301C3.2859 4.5156 3.29922 4.76009 3.34742 4.99886C3.44501 5.45023 3.58841 5.88941 3.7104 6.33468C3.75005 6.47802 3.78051 6.62441 3.82626 6.8074C3.1187 6.87144 2.96927 7.38686 2.84423 7.91142C2.83618 8.0265 2.79966 8.13778 2.7379 8.23521C2.67614 8.33263 2.59111 8.41316 2.49048 8.46954C2.42868 8.51516 2.37853 8.57472 2.34409 8.64338C2.19602 8.89651 2.03199 9.13997 1.85304 9.37229C1.48096 9.80232 1.1546 10.2872 0.520239 10.4092C0.398002 10.4485 0.291275 10.5253 0.215259 10.6288C0.147109 10.6953 0.0929706 10.7747 0.0559925 10.8625C0.0190145 10.9502 0 11.0444 0 11.1397C0 11.2349 0.0190145 11.3291 0.0559925 11.4168C0.0929706 11.5046 0.147109 11.584 0.215259 11.6505C0.447044 11.6505 0.456241 11.4309 0.569084 11.2815C0.718893 11.322 0.875796 11.329 1.02864 11.3022C1.18148 11.2753 1.3265 11.2151 1.4535 11.1259C1.72493 10.9856 2.03602 10.9124 2.30135 10.7661C2.58046 10.5923 2.85021 10.4039 3.10952 10.2018C3.20102 10.5282 2.96925 10.8118 3.0577 11.0954L2.95405 11.1869C2.68567 11.4035 2.68867 11.4096 2.82591 11.7298C2.8751 11.8478 2.90796 11.9719 2.92353 12.0988C2.99977 12.602 3.07295 13.1083 3.137 13.6237C3.14919 13.7378 3.143 13.8532 3.11868 13.9653C3.06164 14.1976 3.05788 14.4397 3.10766 14.6736C3.15744 14.9076 3.25949 15.1272 3.40616 15.3161C3.55283 15.505 3.74033 15.6583 3.95462 15.7645C4.16891 15.8707 4.40443 15.9271 4.64358 15.9294L4.92422 15.9568C4.80222 16.1215 4.71988 16.2618 4.61924 16.3563C4.25776 16.7767 3.99513 17.2728 3.85068 17.8081C3.7998 17.9298 3.73531 18.0454 3.6585 18.1527C3.6662 18.3134 3.64663 18.4743 3.60057 18.6284C3.49358 18.8031 3.4435 19.0066 3.45724 19.211C3.45841 19.3116 3.42975 19.4103 3.37489 19.4946C3.35264 19.5297 3.33777 19.569 3.33126 19.61C3.32474 19.6511 3.32671 19.693 3.33699 19.7333C3.34727 19.7736 3.36565 19.8113 3.39105 19.8442C3.41645 19.8771 3.44836 19.9045 3.48472 19.9246C3.61007 20.0307 3.75617 20.1094 3.91374 20.1556C4.07132 20.2018 4.23687 20.2146 4.39966 20.193C4.52801 20.1596 4.66167 20.1519 4.79302 20.1702C4.92437 20.1885 5.05083 20.2325 5.16516 20.2997C5.14076 20.5376 5.11935 20.7786 5.09495 21.0226C5.00194 21.6842 5.00194 22.3555 5.09495 23.0171C5.37553 24.542 5.66221 26.0669 6.08614 27.5674C6.24789 28.0596 6.33026 28.5743 6.33014 29.0923C6.32042 30.0041 6.40321 30.9146 6.57719 31.8097C6.76412 32.8097 6.77448 33.8347 6.60772 34.8382C6.3672 36.1454 6.30867 37.4797 6.43386 38.8029C6.43345 39.0095 6.49679 39.2111 6.61524 39.3803C6.73368 39.5495 6.90143 39.678 7.09564 39.7484C7.22373 39.8002 7.3488 39.8582 7.50129 39.9253C7.45554 40.0655 7.41592 40.1845 7.37322 40.3004C7.33052 40.4163 7.26036 40.6054 7.19936 40.7701C7.14931 40.8831 7.13954 41.0099 7.17174 41.1292C7.20393 41.2486 7.27617 41.3532 7.37627 41.4258C7.51658 41.5574 7.66869 41.6758 7.83069 41.7795C8.13106 41.9789 8.47538 42.1022 8.83401 42.1389C9.19264 42.1755 9.55482 42.1244 9.88931 41.99C10.0575 41.9382 10.2019 41.8288 10.2973 41.6809C10.3927 41.5331 10.433 41.3563 10.4108 41.1818C10.3898 40.8656 10.3123 40.5557 10.1821 40.2668C9.9198 39.7301 10.0112 39.1963 10.057 38.6443L10.304 38.6016C10.609 38.5528 10.6609 38.4979 10.6426 38.2021C10.6211 37.9964 10.5844 37.7925 10.5328 37.5921C10.3947 37.0852 10.2848 36.571 10.2034 36.052C10.1505 35.3994 10.0373 34.7531 9.86489 34.1215C9.63979 33.3444 9.49571 32.5462 9.43489 31.7396C9.36677 31.1375 9.45168 30.5281 9.68187 29.9676C9.82076 29.6513 9.9073 29.3145 9.93808 28.9704C9.96858 28.4732 9.91975 27.97 9.9045 27.4698C9.87095 26.3902 9.82831 25.3136 9.80696 24.234C9.78899 23.9608 9.8515 23.6882 9.98685 23.4502C10.06 23.5996 10.1241 23.7064 10.1699 23.8223C10.5724 24.847 10.972 25.8778 11.3898 26.9026C11.6106 27.4526 11.7144 28.0425 11.6948 28.6349C11.6843 28.9037 11.7172 29.1725 11.7924 29.4309C11.9004 29.7887 11.9099 30.1691 11.8198 30.5319C11.7557 30.8063 11.6643 31.0778 11.6246 31.3553C11.5118 32.197 11.405 33.0357 11.3197 33.8775C11.3001 34.5467 11.1466 35.2052 10.8683 35.8141C10.7726 35.9761 10.7171 36.1587 10.7065 36.3465C10.6959 36.5344 10.7305 36.722 10.8073 36.8937C11.0815 37.4769 11.1524 38.1351 11.0086 38.7633C10.9293 39.1354 11.0574 39.2939 11.4081 39.4586C11.5006 39.5018 11.5965 39.5375 11.6948 39.5654C12.0562 39.6637 12.3708 39.8875 12.5822 40.1967C12.8236 40.5131 13.092 40.808 13.3844 41.0781C13.5542 41.2378 13.7631 41.3501 13.9901 41.4036C14.2171 41.4572 14.4541 41.4501 14.6775 41.3831C14.9115 41.3137 15.1407 41.2291 15.3637 41.1299C15.4544 41.0946 15.5321 41.0325 15.5866 40.9518C15.6411 40.8712 15.6697 40.7759 15.6687 40.6786C15.6921 40.4868 15.6707 40.2923 15.6061 40.1102C15.5416 39.9281 15.4356 39.7635 15.2966 39.6294C15.135 39.48 14.9733 39.3244 14.8208 39.178C14.6521 39.0347 14.5256 38.848 14.4549 38.6382C14.5098 38.6213 14.5658 38.608 14.6225 38.5986C15.016 38.5528 15.1075 38.4247 14.9611 38.0496C14.8727 37.8239 14.7263 37.6226 14.6196 37.4031C14.5515 37.2988 14.5154 37.1769 14.5158 37.0523C14.5448 36.8956 14.5361 36.7343 14.4905 36.5816C14.4449 36.4289 14.3637 36.2892 14.2535 36.174C14.1528 36.0589 14.0882 35.9168 14.0675 35.7653C14.0431 35.0212 13.9852 34.277 14.2718 33.5573C14.3893 33.2857 14.4643 32.9977 14.4945 32.7033C14.5494 31.8829 14.6958 31.0747 14.8269 30.2635C14.9276 29.6322 14.9489 28.9856 15.0648 28.3543C15.1648 27.7981 15.172 27.2293 15.0861 26.6708C15.0099 26.1371 14.894 25.6064 14.8391 25.0727C14.7171 23.8985 14.6378 22.7182 14.5097 21.5441C14.4426 20.9341 14.3145 20.3577 14.2048 19.7691C14.1377 19.4427 14.0157 19.1286 13.9334 18.8084C13.851 18.4882 13.8022 18.1801 13.7259 17.8691C13.4586 16.9837 13.2768 16.0748 13.183 15.1547C13.1556 14.6637 13.183 14.1696 13.183 13.5902C13.485 14.0697 13.721 14.5878 13.8845 15.1303C14.0426 15.8208 14.3203 16.4783 14.7049 17.0731C15.0099 17.5326 15.3352 17.9789 15.6809 18.4119C15.9859 18.7901 16.3244 19.1408 16.6538 19.5037C16.739 19.5706 16.8015 19.6621 16.8326 19.7659C16.8637 19.8696 16.862 19.9805 16.8276 20.0832C16.7962 20.1957 16.7903 20.3137 16.8103 20.4288C16.8304 20.5438 16.8759 20.6529 16.9435 20.7481C17.0336 20.8728 17.1103 21.0067 17.1722 21.1476C17.2319 21.2861 17.2448 21.4403 17.2088 21.5868C17.1625 21.692 17.1402 21.8063 17.1433 21.9212C17.1465 22.0362 17.1751 22.149 17.2271 22.2516C17.3756 22.6085 17.4423 22.9941 17.4223 23.3801C17.4207 23.636 17.4651 23.8901 17.5534 24.1303C17.7775 24.7474 18.0931 25.3272 18.4897 25.8504C18.6449 26.0398 18.7394 26.2714 18.7611 26.5152C18.7586 26.6248 18.7935 26.7319 18.86 26.8189C18.9266 26.906 19.0208 26.9677 19.1271 26.9941C19.206 27.0129 19.2804 27.0474 19.3459 27.0954C19.4113 27.1433 19.4665 27.2039 19.5083 27.2735C19.55 27.3431 19.5775 27.4203 19.589 27.5006C19.6006 27.5809 19.596 27.6628 19.5755 27.7413C19.5115 28.4976 19.4901 29.2662 19.4138 30.0103C19.3776 30.8185 19.2266 31.6174 18.9655 32.3831C18.9655 32.4044 18.9655 32.4349 18.9655 32.4746L19.0967 32.5234L19.2644 32.5905C19.0692 33.7268 19.0692 34.8882 19.2644 36.0246C19.4001 36.6804 19.4001 37.3571 19.2644 38.013C19.2249 38.1628 19.2356 38.3213 19.2949 38.4644C19.408 38.6599 19.4691 38.8812 19.4723 39.107C19.4755 39.3329 19.4207 39.5558 19.3132 39.7545C19.2863 39.8128 19.2728 39.8763 19.2735 39.9405C19.2735 40.1875 19.3101 40.4163 19.5785 40.5505C19.7182 40.6424 19.8436 40.7544 19.9506 40.8829C19.8478 41.0526 19.7541 41.2277 19.67 41.4075C19.548 41.7124 19.6456 41.9015 19.975 41.9686C20.3637 42.0632 20.7696 42.0632 21.1583 41.9686C21.567 41.8649 21.6279 41.7399 21.4846 41.3373C21.3962 41.0842 21.323 40.828 21.2437 40.5871C21.3078 40.5352 21.3321 40.4986 21.3657 40.4895C21.6707 40.3888 21.7286 40.1631 21.692 39.8795C21.6432 39.5105 21.6097 39.1415 21.567 38.7694C21.4785 38.0588 21.2956 37.3573 21.3901 36.6345C21.445 36.2075 21.4724 35.7806 21.5151 35.3536C21.6271 35.5166 21.6991 35.7036 21.7256 35.8995C21.8201 36.5461 21.8811 37.1957 21.9879 37.8392C22.0707 38.3079 22.0758 38.787 22.0031 39.2573C21.9812 39.3966 21.97 39.5373 21.9696 39.6782C21.9696 40.2394 21.9696 40.2394 22.4484 40.5932C22.3569 40.8676 22.2623 41.1543 22.1708 41.4441C22.0793 41.7338 22.1526 41.8802 22.4484 41.9595C22.8862 42.0663 23.3433 42.0663 23.7811 41.9595C23.9794 41.9168 24.0861 41.8039 24.0495 41.6088C24.0213 41.4712 23.9752 41.3379 23.9123 41.2123C23.8635 41.1025 23.8025 40.9957 23.7385 40.8707C23.894 40.8005 24.0099 40.7456 24.1258 40.6999C24.2021 40.6785 24.2733 40.6417 24.3348 40.5918C24.3963 40.5418 24.447 40.4797 24.4836 40.4094C24.5201 40.3391 24.5419 40.262 24.5475 40.1829C24.5531 40.1038 24.5425 40.0244 24.5162 39.9497C24.4772 39.8139 24.4303 39.6805 24.3759 39.5501C24.2646 39.2471 24.2249 38.9225 24.26 38.6016C24.3179 38.0679 24.3789 37.5312 24.4247 36.9944C24.4432 36.8162 24.4277 36.6361 24.3789 36.4637C24.0435 35.4664 24.0129 34.4234 23.8726 33.3956C23.859 33.1925 23.859 32.9887 23.8726 32.7856L24.385 32.6027C24.3928 32.5062 24.3928 32.4093 24.385 32.3129C24.2731 31.5647 24.1583 30.8175 24.0404 30.0713C23.9532 29.4065 24.0083 28.7308 24.202 28.089C24.2294 27.9146 24.3176 27.7555 24.451 27.64C24.5844 27.5244 24.7544 27.4598 24.9309 27.4576C25.0274 27.443 25.1217 27.4164 25.2115 27.3783C25.2115 27.3143 25.2359 27.2746 25.2115 27.2411C25.0316 26.7074 25.2115 26.3262 25.6476 25.9785C26.2762 25.4802 26.7292 24.7942 26.9408 24.0205C27.1052 23.5895 27.3019 23.1715 27.5293 22.7701C27.5591 22.6777 27.6202 22.5985 27.702 22.5461C27.7838 22.4938 27.8813 22.4716 27.9777 22.4834C28.0508 22.4834 28.1332 22.4407 28.2064 22.4499C28.2508 22.458 28.2964 22.4562 28.34 22.4445C28.3836 22.4329 28.4241 22.4117 28.4585 22.3825C28.4929 22.3534 28.5205 22.3169 28.5391 22.2758C28.5578 22.2347 28.5671 22.19 28.5663 22.1449C28.6182 21.7362 28.8713 21.3397 28.6487 20.925C28.6243 20.8762 28.6487 20.7999 28.6487 20.7359C28.6822 20.4309 28.734 20.1259 28.7462 19.8209C28.7521 19.5111 28.8417 19.2087 29.0055 18.9456C29.2495 18.5675 29.4934 18.1923 29.7557 17.8263C30.3691 17.0006 30.9041 16.1195 31.3538 15.1944C31.4624 14.9766 31.5434 14.7461 31.5948 14.5082C31.735 13.7488 32.1437 13.1022 32.4518 12.4129C32.4518 12.4129 32.4944 12.3947 32.5646 12.3642C32.592 12.5319 32.6286 12.6905 32.6439 12.8491C32.711 13.578 32.7568 14.3099 32.8391 15.0358C32.9698 15.9835 32.7854 16.9479 32.3145 17.7806C32.1246 18.1299 32.0064 18.5135 31.9668 18.909C31.8601 19.8545 31.7869 20.803 31.7534 21.7514C31.7305 22.6259 31.5486 23.4888 31.2166 24.298C30.7794 25.3411 30.3484 26.3851 29.9235 27.4302C29.8472 27.6132 29.7923 27.8084 29.7191 28.0401C29.861 28.0987 30.0113 28.1347 30.1644 28.1469C30.5241 28.1341 30.8817 28.2073 31.2074 28.3604C31.6948 28.5632 32.22 28.6589 32.7476 28.641C33.2691 28.5922 33.7937 28.5739 34.3457 28.5434C34.3701 28.9429 34.3701 28.9582 34.181 29.196C33.9401 29.501 33.687 29.7877 33.4491 30.0927C32.9391 30.6911 32.5636 31.3921 32.3481 32.1482C32.0348 33.2753 31.5514 34.3479 30.9147 35.3292C30.6722 35.7413 30.3263 36.083 29.9113 36.3204C29.7893 36.3875 29.6673 36.4637 29.5453 36.5339C29.3029 36.6469 29.1085 36.8423 28.9968 37.0853C28.885 37.3282 28.8633 37.603 28.9353 37.8605C29.0695 38.425 29.0695 39.0131 28.9353 39.5776C28.9246 39.6146 28.9164 39.6523 28.9109 39.6904C28.8865 39.9374 28.9109 39.9619 29.2373 39.968C29.405 39.4586 29.5727 38.9432 29.7496 38.3942C30.0595 38.6158 30.2963 38.9249 30.4297 39.2817C30.5182 39.5227 30.5853 39.7697 30.6646 40.0137C30.7258 40.2665 30.8834 40.4854 31.1037 40.6237C31.4398 40.8132 31.8104 40.9341 32.1936 40.9791C32.5769 41.0241 32.9653 40.9925 33.3362 40.8859C33.3545 40.8859 33.3667 40.8493 33.388 40.825C33.4307 40.6145 33.2844 40.5017 33.1471 40.3827C32.7853 40.0893 32.5197 39.6941 32.3847 39.2482C32.2596 38.8182 32.159 38.379 32.0797 37.9398C32.0058 37.5195 32.0534 37.0867 32.2169 36.6924C32.8193 35.2156 33.6229 33.829 34.6049 32.5722C34.6776 32.4933 34.7561 32.4198 34.8397 32.3526C34.8733 32.4563 34.8946 32.5142 34.9099 32.5752C35.207 33.8289 35.6153 35.0537 36.1298 36.235C36.3036 36.6345 36.4348 37.0554 36.5537 37.4549C36.6047 37.5946 36.6148 37.746 36.5829 37.8912C36.5511 38.0365 36.4785 38.1697 36.3738 38.2753C36.0688 38.6291 36.0505 38.8456 36.3128 39.2421C36.4864 39.5002 36.5914 39.7983 36.6178 40.1082C36.6361 40.2607 36.6635 40.4132 36.694 40.5627C36.7174 40.6763 36.7659 40.7833 36.8361 40.8757C36.9063 40.9681 36.9964 41.0435 37.0997 41.0964C37.4937 41.3146 37.925 41.4574 38.3714 41.5172C38.511 41.5371 38.6527 41.5371 38.7923 41.5172C38.8835 41.5139 38.9723 41.4866 39.0497 41.4382C39.1271 41.3897 39.1904 41.3218 39.2333 41.2412C39.2762 41.1606 39.2973 41.0702 39.2943 40.979C39.2913 40.8877 39.2643 40.7988 39.2162 40.7213C39.174 40.6285 39.1218 40.5405 39.0607 40.459C38.8179 40.139 38.6727 39.7555 38.6428 39.3549C38.5609 38.4846 38.3223 37.6363 37.9384 36.851C37.7129 36.3867 37.5842 35.8814 37.5602 35.3658C37.5358 34.826 37.5114 34.2892 37.484 33.7494C37.4443 32.993 37.4168 32.2245 37.3558 31.4834C37.2757 30.6396 37.3596 29.7883 37.6029 28.9764C38.0786 28.9185 38.5361 28.8697 38.9936 28.8026C39.4511 28.7355 39.5639 28.4519 39.384 28.0554C39.2772 27.8206 39.1491 27.604 39.326 27.3387C39.3577 27.2395 39.3577 27.1329 39.326 27.0337C39.1948 26.1188 39.0698 25.2038 38.9143 24.2889C38.7951 23.7625 38.7347 23.2244 38.7343 22.6847C38.7343 22.4255 38.7527 22.1662 39.0668 22.0747C39.0332 21.9222 39.0027 21.8002 38.9783 21.6752C38.7992 20.9908 38.7211 20.2839 38.7465 19.5769C38.8337 18.6926 38.7541 17.7998 38.5117 16.945C38.347 16.3655 38.1457 15.7952 37.9932 15.2127C37.7371 14.2306 37.9689 13.5993 38.7771 13.0077C38.8687 12.9473 38.946 12.8677 39.0039 12.7745C39.0619 12.6813 39.0989 12.5767 39.1125 12.4678C39.1369 12.2696 39.1552 12.0683 39.1765 11.8579C39.2131 11.8762 39.2467 11.8792 39.2558 11.8975C39.6581 12.5848 39.9736 13.3193 40.1952 14.0842C40.4807 15.3384 40.9581 16.5409 41.6103 17.6495C41.7596 17.9189 41.8949 18.1958 42.0159 18.479C42.0568 18.5775 42.0732 18.6845 42.0636 18.7908C42.0541 18.897 42.0189 18.9993 41.961 19.089C41.7881 19.4305 41.6354 19.7818 41.5036 20.1412C41.4934 20.1869 41.4939 20.2343 41.505 20.2798C41.5161 20.3252 41.5375 20.3676 41.5676 20.4034C41.6585 20.4845 41.7324 20.5829 41.7847 20.6929C41.8371 20.8029 41.8669 20.9222 41.8726 21.0439C41.8895 21.2822 41.9639 21.5128 42.0892 21.7162C42.2145 21.9196 42.3872 22.0897 42.5924 22.212L43.3487 21.6264C43.3274 21.7332 43.303 21.8368 43.2755 21.9771C44.465 22.3706 45.2853 23.2215 46.0539 24.2492C46.0706 24.1729 46.0819 24.0954 46.0874 24.0175C46.0722 23.7125 46.0355 23.4075 46.0355 23.1025C46.0455 22.9836 46.0284 22.8639 45.9857 22.7525C45.9429 22.6411 45.8755 22.5408 45.7886 22.459Z" fill="#FF7009"/>
<path d="M46.1484 22.7764C46.1484 22.9929 46.1484 23.1454 46.1484 23.2918C46.203 24.4381 46.4933 25.5608 47.0013 26.5898C47.5092 27.6188 48.2239 28.532 49.1006 29.2725C50.2297 30.2858 51.6576 30.9045 53.1691 31.0352C55.0774 31.1781 56.9934 31.1852 58.9028 31.0566C60.5862 30.9439 62.177 30.2446 63.3982 29.0803C65.0178 27.6146 66.0024 25.5753 66.143 23.3955C66.143 23.2094 66.143 23.0203 66.143 22.7855L46.1484 22.7764Z" fill="#FF7009"/>
<path d="M66.0637 22.6389C66.0899 22.5884 66.1103 22.5352 66.1247 22.4803C66.1339 22.4165 66.1339 22.3518 66.1247 22.2881C66.0366 21.4051 65.8005 20.5432 65.4263 19.7385C64.8256 18.5345 63.9488 17.4895 62.8676 16.6887C61.3019 15.529 59.4575 14.8041 57.5212 14.5874C57.1517 14.5431 56.7801 14.5187 56.408 14.5142C56.1366 14.5142 56.103 14.5538 56.103 14.8191C56.103 14.871 56.103 14.9228 56.103 14.9747V22.6175C59.4731 22.651 62.7761 22.6693 66.0637 22.6389Z" fill="#FF7009"/>
<path d="M60.269 33.576C58.8478 34.3476 58.2439 35.601 58.3384 37.19C58.3977 38.0833 58.793 38.9212 59.4448 39.535C60.0966 40.1489 60.9565 40.4933 61.8518 40.499C62.453 40.4976 63.0428 40.3347 63.5595 40.0273C64.0762 39.7198 64.5008 39.2792 64.7888 38.7515C65.1748 38.1218 65.3612 37.3902 65.3236 36.6526C65.2861 35.9151 65.0262 35.2061 64.5783 34.619C64.1098 33.9507 63.4138 33.4761 62.6205 33.2841C61.8273 33.0921 60.9912 33.1959 60.269 33.576ZM61.1473 39.276C60.7298 39.1514 60.3543 38.9151 60.0614 38.5926C59.7684 38.2701 59.5692 37.8737 59.4851 37.4462C59.3569 36.945 59.3836 36.4168 59.5616 35.9312C59.7397 35.4455 60.0607 35.0253 60.4824 34.7257C60.9974 34.3746 61.6303 34.2417 62.243 34.356C62.8557 34.4703 63.3982 34.8225 63.7518 35.3357C64.032 35.7317 64.1938 36.1992 64.2185 36.6837C64.2215 38.5227 62.6996 39.7305 61.1473 39.2639V39.276Z" fill="#FF7009"/>
<path d="M47.8898 34.3628C47.5419 34.7597 47.2821 35.2259 47.1275 35.7306C46.973 36.2352 46.9272 36.767 46.9932 37.2906C47.1762 39.1571 48.8413 40.5448 50.4577 40.4716C51.1825 40.4864 51.8913 40.2576 52.4706 39.822C53.2227 39.2469 53.7322 38.4111 53.8987 37.4791C54.0653 36.5472 53.8767 35.5866 53.3703 34.7867C52.248 33.0544 49.5489 32.4384 47.8898 34.3628ZM51.2446 39.2425C50.7865 39.3995 50.2914 39.413 49.8254 39.2811C49.3595 39.1492 48.9449 38.8783 48.637 38.5044C48.2129 37.9815 48.0055 37.3158 48.0577 36.6445C48.1099 35.9733 48.4177 35.3476 48.9176 34.8965C49.1586 34.684 49.4409 34.5237 49.7469 34.4255C50.0528 34.3274 50.3758 34.2936 50.6954 34.3262C51.015 34.3589 51.3245 34.4573 51.6043 34.6153C51.8841 34.7732 52.1281 34.9874 52.3212 35.2442C52.7012 35.7427 52.8924 36.3596 52.861 36.9856C52.8447 37.4779 52.6822 37.9543 52.3944 38.354C52.1065 38.7537 51.7063 39.0587 51.2446 39.2303V39.2425Z" fill="#FF7009"/>
<path d="M58.9909 34.4267L56.9872 33.1031L58.4542 32.1363C58.933 31.8313 59.4179 31.5263 59.8784 31.1908L59.8296 31.0994C59.7686 31.0994 59.7046 31.0994 59.6436 31.0994C59.1983 31.1451 58.75 31.1817 58.3078 31.2427C58.1571 31.2677 58.0129 31.3227 57.8838 31.4043C57.3837 31.7093 56.8896 32.0387 56.4017 32.3711C56.3284 32.4332 56.2354 32.4673 56.1393 32.4673C56.0433 32.4673 55.9503 32.4332 55.877 32.3711C55.4531 32.0661 55.0109 31.8191 54.5931 31.5233C54.3205 31.3039 53.9754 31.195 53.6263 31.2183C53.4719 31.2203 53.3176 31.207 53.1658 31.1787L52.4216 31.0811L52.3789 31.1725C52.8425 31.5019 53.3335 31.7978 53.8063 32.1149L55.261 33.0817C54.6235 33.6093 53.8916 33.9174 53.2969 34.4419L53.7635 35.2044L56.1302 33.6551C56.9506 34.1248 57.6887 34.7042 58.5243 35.1983C58.6951 34.9269 58.8324 34.692 58.9909 34.4267Z" fill="#FF7009"/>
<path d="M62.41 34.5239C61.9803 34.4026 61.524 34.4137 61.1007 34.5557C60.6775 34.6977 60.3069 34.964 60.0373 35.3199C59.8258 35.5967 59.675 35.9149 59.5946 36.2538C59.5142 36.5927 59.5061 36.9447 59.5706 37.287C59.6224 37.6075 59.7417 37.9133 59.9208 38.1841C60.0999 38.4549 60.3345 38.6845 60.6092 38.8576C60.8838 39.0307 61.1921 39.1433 61.5137 39.188C61.8352 39.2327 62.1626 39.2085 62.4741 39.1169C62.9551 38.9607 63.3728 38.6535 63.6652 38.2408C63.9575 37.8281 64.1088 37.3321 64.0966 36.8265C64.0966 36.7137 64.0966 36.5978 64.0783 36.4819C64.0242 36.0274 63.837 35.599 63.5402 35.2506C63.2434 34.9022 62.8502 34.6494 62.41 34.5239ZM60.0677 35.9543C60.0821 35.9189 60.0985 35.8842 60.1166 35.8506C60.3605 35.3535 60.6289 35.3229 60.9522 35.7621C61.0457 35.8837 61.1264 36.0145 61.1931 36.1525C61.3212 36.427 61.248 36.5612 60.9553 36.61C60.8943 36.61 60.8302 36.61 60.7692 36.61C60.6533 36.5917 60.5374 36.5764 60.4246 36.5551C60.0251 36.4971 59.9274 36.3202 60.0677 35.9543ZM61.2205 37.4426C61.0946 37.6775 60.9454 37.8992 60.7753 38.1044C60.7516 38.1351 60.7216 38.1604 60.6874 38.1785C60.6531 38.1967 60.6152 38.2073 60.5765 38.2096C60.5378 38.2119 60.499 38.2059 60.4628 38.1919C60.4266 38.178 60.3938 38.1565 60.3667 38.1288C60.1694 37.969 60.0379 37.742 59.9976 37.4914C59.9976 37.3053 60.0738 37.165 60.2416 37.1376C60.5032 37.091 60.7689 37.0716 61.0346 37.0796C61.2358 37.0918 61.3181 37.2565 61.2205 37.4426ZM61.9342 38.8699C61.8713 38.8745 61.8081 38.8745 61.7451 38.8699C61.3517 38.8485 61.2206 38.6716 61.3151 38.2904C61.3844 37.9801 61.5617 37.7045 61.8153 37.5127C61.9541 37.6106 62.0719 37.7352 62.162 37.8792C62.2521 38.0232 62.3126 38.1838 62.3399 38.3514C62.4009 38.6594 62.2484 38.8394 61.9342 38.8699ZM62.3399 35.2863C62.2689 35.5275 62.1664 35.7583 62.0349 35.9726C61.9068 36.1738 61.7299 36.1647 61.6109 35.9726C61.5077 35.8119 61.4209 35.6412 61.3517 35.4632C61.181 35.021 61.3334 34.8075 61.8397 34.8075C61.9051 34.8102 61.9704 34.8173 62.0349 34.8289C62.3124 34.8838 62.4161 35.0241 62.3399 35.2863ZM63.2792 38.1227C63.2549 38.149 63.2255 38.17 63.1926 38.1844C63.1598 38.1988 63.1244 38.2062 63.0886 38.2062C63.0527 38.2062 63.0173 38.1988 62.9845 38.1844C62.9517 38.17 62.9222 38.149 62.8979 38.1227C62.7099 37.8996 62.5445 37.6585 62.4039 37.4029C62.3094 37.223 62.4039 37.0674 62.6296 37.0613C62.8706 37.0558 63.1116 37.0732 63.3493 37.1132C63.5231 37.1406 63.6116 37.2626 63.6055 37.5005C63.596 37.6209 63.5621 37.7381 63.506 37.845C63.45 37.9519 63.3728 38.0464 63.2792 38.1227ZM63.6025 36.122C63.6161 36.1712 63.6187 36.2228 63.6101 36.2731C63.6016 36.3234 63.5821 36.3712 63.5529 36.4131C63.5238 36.455 63.4859 36.49 63.4417 36.5156C63.3976 36.5412 63.3483 36.5567 63.2975 36.5612C63.2109 36.5801 63.1234 36.5943 63.0352 36.6039L62.8278 36.6252L62.5807 36.5825C62.41 36.5429 62.3246 36.4117 62.4009 36.2775C62.5479 36.0122 62.7162 35.7593 62.904 35.5212C62.9955 35.4022 63.1359 35.448 63.2487 35.5212C63.3483 35.589 63.4317 35.6781 63.4929 35.782C63.554 35.8858 63.5914 36.002 63.6025 36.122Z" fill="#FF7009"/>
<path d="M51.3756 34.6493C51 34.4598 50.5762 34.3875 50.1591 34.4419C49.7419 34.4963 49.3508 34.6748 49.0364 34.9543C48.7742 35.173 48.5608 35.4444 48.4101 35.7508C48.2594 36.0573 48.1747 36.3919 48.1615 36.7331C48.1483 37.0744 48.2068 37.4146 48.3333 37.7317C48.4599 38.0489 48.6516 38.336 48.8961 38.5744C49.1097 38.7881 49.3648 38.9557 49.6456 39.0671C49.9264 39.1785 50.2271 39.2313 50.529 39.2221C50.831 39.213 51.1279 39.1422 51.4015 39.014C51.675 38.8858 51.9195 38.703 52.1198 38.4768C52.5533 37.9875 52.7797 37.3488 52.751 36.6957C52.7465 36.2576 52.6139 35.8304 52.3695 35.4667C52.1251 35.1031 51.7795 34.8189 51.3756 34.6493ZM48.6979 35.9973C48.7772 35.7655 48.8839 35.5124 49.1432 35.4666C49.4024 35.4209 49.5305 35.6649 49.6616 35.8479C49.7376 35.9503 49.8001 36.062 49.8476 36.1803C49.9543 36.4548 49.869 36.5859 49.5701 36.6195C49.5142 36.6227 49.4582 36.6227 49.4023 36.6195L49.0394 36.5646C48.6857 36.4975 48.5881 36.3206 48.6979 35.9973ZM49.869 37.4277C49.7358 37.6708 49.5796 37.9006 49.4023 38.1139C49.38 38.1416 49.3523 38.1644 49.3208 38.1809C49.2893 38.1974 49.2547 38.2072 49.2193 38.2098C49.1838 38.2124 49.1481 38.2076 49.1146 38.1958C49.081 38.1841 49.0502 38.1655 49.0242 38.1413C48.9172 38.0611 48.8286 37.9589 48.7645 37.8416C48.7003 37.7243 48.662 37.5946 48.6521 37.4612C48.6431 37.392 48.6607 37.3219 48.7015 37.2653C48.7423 37.2086 48.8032 37.1696 48.8717 37.1562C49.1444 37.1081 49.4214 37.0887 49.6982 37.0983C49.7358 37.0998 49.7725 37.1112 49.8043 37.1314C49.8361 37.1516 49.862 37.1799 49.8793 37.2133C49.8967 37.2468 49.9049 37.2842 49.9031 37.3219C49.9013 37.3595 49.8895 37.396 49.869 37.4277ZM50.052 34.9055C50.1785 34.8321 50.3221 34.7934 50.4683 34.7934C50.6145 34.7934 50.7581 34.8321 50.8846 34.9055C50.9541 34.9885 51.0116 35.0809 51.0554 35.18C50.9325 35.4609 50.794 35.7348 50.6406 36.0004C50.6248 36.037 50.5986 36.0681 50.5652 36.09C50.5319 36.1119 50.4929 36.1236 50.453 36.1236C50.4131 36.1236 50.3741 36.1119 50.3408 36.09C50.3075 36.0681 50.2813 36.037 50.2655 36.0004C50.1233 35.7588 50.0087 35.502 49.9238 35.2349C49.919 35.1738 49.928 35.1125 49.9502 35.0555C49.9724 34.9984 50.0072 34.9471 50.052 34.9055ZM50.8205 38.7879C50.7101 38.8546 50.5836 38.8899 50.4546 38.8899C50.3256 38.8899 50.199 38.8546 50.0886 38.7879C50.0428 38.757 50.0048 38.7158 49.9778 38.6676C49.9508 38.6194 49.9355 38.5655 49.933 38.5103C49.9434 38.3152 49.9943 38.1244 50.0825 37.9501C50.1707 37.7757 50.2944 37.6217 50.4454 37.4978C50.6099 37.6131 50.7452 37.7653 50.8405 37.9421C50.9358 38.119 50.9885 38.3156 50.9943 38.5164C50.9885 38.5721 50.9697 38.6256 50.9395 38.6727C50.9094 38.7198 50.8686 38.7593 50.8205 38.7879ZM52.1808 37.7631C51.952 38.2999 51.6317 38.3396 51.2963 37.8729C51.1982 37.7397 51.1183 37.5941 51.0584 37.4399C50.9791 37.2172 51.0584 37.0739 51.2963 37.0678C51.5376 37.0654 51.7786 37.0858 52.016 37.1288C52.1868 37.1593 52.2661 37.2904 52.2478 37.5497C52.2311 37.6225 52.2087 37.6938 52.1808 37.7631ZM51.8117 36.5829C51.7111 36.6012 51.6074 36.6134 51.5525 36.6195H51.4305C51.0279 36.5951 50.9273 36.4212 51.1255 36.0674C51.2209 35.9003 51.331 35.7421 51.4549 35.5947C51.4808 35.5534 51.5163 35.519 51.5583 35.4942C51.6003 35.4694 51.6476 35.4551 51.6963 35.4524C51.745 35.4497 51.7937 35.4588 51.8382 35.4787C51.8827 35.4987 51.9217 35.5291 51.952 35.5673C52.045 35.6545 52.1215 35.7578 52.1777 35.8723C52.3729 36.2748 52.2479 36.5097 51.8117 36.5829Z" fill="#FF7009"/>
<path d="M86.2653 8.49957C87.7156 8.49957 89.0205 9.11273 90.1802 10.3391L91.8837 8.71351C91.1912 7.90127 90.3283 7.25142 89.3565 6.81005C88.3999 6.36857 87.3588 6.14003 86.3053 6.14023C85.0865 6.13404 83.8873 6.44626 82.8263 7.04598C81.7968 7.60575 80.939 8.43517 80.3449 9.44531C79.758 10.4807 79.4591 11.6544 79.4792 12.8444C79.4792 14.8185 80.113 16.436 81.3806 17.697C82.6483 18.958 84.2779 19.5892 86.2693 19.5905C87.2561 19.6084 88.2362 19.4261 89.1505 19.0546C89.9929 18.6961 90.8867 18.0562 91.8317 17.1352L90.1802 15.4096C89.6256 15.9994 88.9719 16.4873 88.2488 16.8512C87.6386 17.1227 86.977 17.2591 86.3093 17.2511C85.5191 17.2608 84.7398 17.0651 84.0479 16.6833C83.3858 16.3236 82.84 15.7826 82.4744 15.1237C82.0938 14.4274 81.9015 13.6438 81.9165 12.8504C81.9035 12.2762 82.0083 11.7054 82.2247 11.1734C82.441 10.6414 82.7642 10.1594 83.1742 9.75723C83.5761 9.34745 84.0578 9.02442 84.5894 8.80811C85.1211 8.5918 85.6915 8.48678 86.2653 8.49957Z" fill="#FF7009"/>
<path d="M98.7479 9.55365C98.0972 9.53775 97.4503 9.65734 96.8483 9.90483C96.2462 10.1523 95.7022 10.5223 95.2508 10.9912C94.3178 11.947 93.8512 13.1466 93.8512 14.5902C93.8331 15.2417 93.9478 15.8901 94.1884 16.4958C94.429 17.1015 94.7905 17.6519 95.2508 18.1133C96.1839 19.0463 97.3942 19.5129 98.8818 19.5129C99.7363 19.5344 100.584 19.36 101.361 19.003C102.086 18.6424 102.706 18.1012 103.161 17.4315L101.161 16.4917C100.861 16.7923 100.504 17.0296 100.111 17.1897C99.7177 17.3497 99.2964 17.4292 98.8719 17.4235C98.2087 17.4485 97.5584 17.2357 97.0383 16.8236C96.5568 16.4175 96.2421 15.8479 96.1546 15.2241H103.79V14.7722C103.79 13.2046 103.324 11.9436 102.391 10.9892C101.458 10.0348 100.243 9.55631 98.7479 9.55365ZM96.2506 13.3526C96.4355 12.8778 96.735 12.456 97.1223 12.1249C97.6263 11.7524 98.2393 11.557 98.8659 11.5691C99.4416 11.5576 100.006 11.7315 100.475 12.0649C100.923 12.3751 101.251 12.8297 101.403 13.3526H96.2506Z" fill="#FF7009"/>
<path d="M114.939 9.79736L112.034 15.7717L109.081 9.79736H107.513L105.142 19.2687H107.459L108.733 13.7063L111.492 19.2687H112.468L115.289 13.7123L116.555 19.2687H118.88L116.507 9.79736H114.939Z" fill="#FF7009"/>
<path d="M125.194 9.55348C124.543 9.53585 123.895 9.65404 123.292 9.90051C122.689 10.147 122.144 10.5163 121.691 10.9851C120.758 11.9408 120.292 13.1405 120.292 14.5841C120.272 15.2357 120.387 15.8843 120.627 16.4902C120.868 17.096 121.23 17.6463 121.691 18.1071C122.624 19.0402 123.834 19.5067 125.32 19.5067C126.175 19.5286 127.024 19.3541 127.802 18.9968C128.526 18.6363 129.146 18.095 129.601 17.4253L127.602 16.4855C127.302 16.786 126.945 17.0233 126.551 17.1833C126.158 17.3434 125.737 17.4229 125.312 17.4173C124.649 17.4423 123.999 17.2296 123.479 16.8175C122.996 16.4119 122.682 15.842 122.595 15.2179H130.231V14.766C130.231 13.1985 129.764 11.9375 128.831 10.9831C127.898 10.0287 126.686 9.55214 125.194 9.55348ZM122.697 13.3524C122.882 12.8776 123.181 12.4559 123.569 12.1248C124.073 11.752 124.686 11.5565 125.312 11.5689C125.888 11.5577 126.452 11.7315 126.922 12.0648C127.369 12.3749 127.697 12.8295 127.85 13.3524H122.697Z" fill="#FF7009"/>
<path d="M135.074 7.76405C135.649 7.97899 136.26 8.08083 136.873 8.06397C137.94 8.06397 138.771 7.8407 139.367 7.39416C139.654 7.18525 139.896 6.92016 140.078 6.61496C140.26 6.30975 140.378 5.9708 140.424 5.61865H138.501C138.372 5.83726 138.182 6.01266 137.953 6.12252C137.614 6.26639 137.249 6.3379 136.881 6.33245C136.543 6.34155 136.207 6.28097 135.894 6.1545C135.634 6.04374 135.413 5.85694 135.262 5.61865H133.338C133.407 6.08962 133.6 6.53392 133.896 6.90629C134.208 7.28931 134.614 7.58486 135.074 7.76405Z" fill="#FF7009"/>
<path d="M134.992 15.3598V9.79736H132.677V19.2687H133.94L138.667 13.8182V19.2687H140.982V9.79736H139.84L134.992 15.3598Z" fill="#FF7009"/>
<path d="M149.839 13.2104H146.286V9.79736H143.911V19.2687H146.286V15.3418H149.839V19.2687H152.215V9.79736H149.839V13.2104Z" fill="#FF7009"/>
<path d="M162.144 10.8412C161.75 10.4323 161.28 10.1043 160.761 9.87546C160.255 9.6597 159.711 9.55013 159.161 9.55355C158.566 9.54601 157.977 9.6672 157.434 9.90879C156.891 10.1504 156.406 10.5067 156.014 10.9532C155.15 11.8862 154.718 13.0859 154.718 14.5522C154.68 15.862 155.161 17.134 156.056 18.0912C156.454 18.5404 156.942 18.8997 157.49 19.1452C158.037 19.3907 158.631 19.5167 159.231 19.5148C159.751 19.519 160.267 19.4198 160.749 19.2229C161.27 18.9933 161.744 18.6701 162.148 18.2691V19.2689H164.523V9.79149H162.148L162.144 10.8412ZM161.51 16.5576C161.273 16.8113 160.985 17.0118 160.665 17.1459C160.345 17.2799 160 17.3445 159.653 17.3354C159.309 17.3407 158.968 17.272 158.653 17.134C158.338 16.996 158.057 16.7919 157.827 16.5356C157.325 15.9858 157.058 15.2606 157.085 14.5162C157.055 13.7799 157.317 13.0614 157.813 12.5167C158.045 12.2633 158.328 12.0625 158.644 11.9279C158.96 11.7934 159.302 11.7283 159.645 11.7369C159.992 11.727 160.337 11.7901 160.659 11.922C160.98 12.0539 161.27 12.2517 161.51 12.5027C161.759 12.7707 161.953 13.0854 162.079 13.4286C162.206 13.7718 162.263 14.1367 162.248 14.5022C162.266 14.8765 162.21 15.2506 162.084 15.6033C161.957 15.956 161.762 16.2803 161.51 16.5576Z" fill="#FF7009"/>
<path d="M169.35 10.0054C168.771 10.162 168.265 10.5155 167.919 11.0052C167.518 11.5352 167.307 12.1843 167.319 12.8486C167.312 13.4139 167.484 13.9667 167.811 14.4282C168.114 14.8767 168.558 15.212 169.072 15.382L166.431 19.2689H169.246L171.508 15.8378H171.97V19.2689H174.347V9.7915H171.948C170.771 9.7915 169.905 9.86282 169.35 10.0054ZM171.976 14.0543H171.302C170.294 14.0543 169.79 13.6738 169.79 12.9126C169.79 12.1515 170.242 11.7743 171.146 11.781H171.976V14.0543Z" fill="#FF7009"/>
<path d="M191.506 9.79736L188.599 15.7717L185.646 9.79736H184.08L181.709 19.2687H184.024L185.3 13.7063L188.059 19.2687H189.035L191.854 13.7123L193.12 19.2687H195.445L193.074 9.79736H191.506Z" fill="#FF7009"/>
<path d="M201.759 9.55345C201.108 9.53595 200.46 9.65419 199.857 9.90066C199.254 10.1471 198.709 10.5164 198.256 10.985C197.323 11.9408 196.856 13.1404 196.856 14.584C196.838 15.2355 196.953 15.8839 197.194 16.4896C197.434 17.0953 197.796 17.6457 198.256 18.1071C199.189 19.0401 200.399 19.5067 201.887 19.5067C202.742 19.5282 203.59 19.3538 204.366 18.9968C205.091 18.6362 205.711 18.095 206.166 17.4253L204.166 16.4855C203.866 16.7861 203.509 17.0234 203.116 17.1835C202.723 17.3435 202.301 17.423 201.877 17.4173C201.214 17.4423 200.564 17.2296 200.043 16.8174C199.562 16.4113 199.247 15.8417 199.16 15.2179H206.796V14.766C206.796 13.1984 206.329 11.9375 205.396 10.9831C204.463 10.0287 203.251 9.55212 201.759 9.55345ZM199.262 13.3524C199.447 12.8776 199.746 12.4558 200.133 12.1247C200.637 11.7522 201.25 11.5568 201.877 11.5689C202.453 11.5574 203.017 11.7313 203.487 12.0648C203.934 12.3749 204.262 12.8295 204.414 13.3524H199.262Z" fill="#FF7009"/>
<path d="M214.589 9.7915H213.058L209.789 17.2514H208.361V20.9084H210.477V19.2629H217.093V20.9084H219.356V17.2514H217.906L214.589 9.7915ZM212.218 17.2574L213.818 13.2585L215.371 17.2574H212.218Z" fill="#FF7009"/>
<path d="M223.697 15.3598V9.79736H221.381V19.2687H222.643L227.37 13.8182V19.2687H229.685V9.79736H228.545L223.697 15.3598Z" fill="#FF7009"/>
<path d="M240.92 9.79736H238.545V16.9874H234.992V9.79736H232.615V19.2687H241.068V20.9323H243.332V16.9874H240.92V9.79736Z" fill="#FF7009"/>
<path d="M247.478 15.3598V9.79736H245.163V19.2687H246.427L251.153 13.8182V19.2687H253.469V9.79736H252.329L247.478 15.3598Z" fill="#FF7009"/>
<path d="M262.326 13.2104H258.773V9.79736H256.398V19.2687H258.773V15.3418H262.326V19.2687H264.703V9.79736H262.326V13.2104Z" fill="#FF7009"/>
<path d="M274.631 9.79162V10.8353C274.237 10.4264 273.767 10.0984 273.247 9.8696C272.742 9.65384 272.197 9.54427 271.648 9.54769C271.053 9.54015 270.464 9.66133 269.921 9.90292C269.378 10.1445 268.893 10.5008 268.5 10.9473C267.637 11.8804 267.205 13.08 267.205 14.5463C267.167 15.8562 267.648 17.1281 268.542 18.0853C268.94 18.5345 269.429 18.8939 269.977 19.1393C270.524 19.3848 271.118 19.5108 271.718 19.5089C272.238 19.5131 272.754 19.4139 273.235 19.217C273.756 18.9875 274.23 18.6642 274.635 18.2633V19.263H277V9.79162H274.631ZM274.001 16.5577C273.764 16.8114 273.476 17.0119 273.156 17.146C272.835 17.2801 272.49 17.3447 272.143 17.3355C271.8 17.3408 271.459 17.2721 271.144 17.1341C270.829 16.9962 270.547 16.7921 270.318 16.5357C269.815 15.986 269.549 15.2607 269.576 14.5163C269.546 13.78 269.808 13.0616 270.304 12.5169C270.536 12.2634 270.819 12.0626 271.135 11.9281C271.451 11.7935 271.792 11.7284 272.135 11.7371C272.483 11.7272 272.828 11.7902 273.149 11.9221C273.471 12.054 273.761 12.2519 274.001 12.5029C274.25 12.7708 274.443 13.0855 274.57 13.4287C274.697 13.7719 274.754 14.1368 274.739 14.5023C274.757 14.8766 274.701 15.2508 274.574 15.6035C274.448 15.9561 274.253 16.2804 274.001 16.5577Z" fill="#FF7009"/>
<path d="M87.7807 30.3047L87.1111 30.8191C86.7614 30.3532 86.3053 29.9776 85.7808 29.7238C85.2477 29.4721 84.6645 29.3447 84.075 29.3513C83.4158 29.3471 82.7669 29.5158 82.1933 29.8406C81.6346 30.1467 81.17 30.5996 80.8496 31.1503C80.529 31.7137 80.3646 32.3526 80.3737 33.0009C80.3613 33.4834 80.4496 33.9632 80.6331 34.4096C80.8166 34.8561 81.0913 35.2593 81.4394 35.5936C82.1489 36.2834 83.0447 36.6283 84.1267 36.6283C84.6976 36.636 85.2628 36.5143 85.7799 36.2724C86.297 36.0305 86.7527 35.6746 87.1126 35.2315L87.7822 35.7399C87.3609 36.2764 86.8177 36.7047 86.1976 36.989C85.5314 37.2916 84.8066 37.443 84.075 37.4324C82.5889 37.4324 81.4168 36.9397 80.5584 35.9543C79.8367 35.114 79.4522 34.0359 79.4794 32.9285C79.4672 32.3433 79.5772 31.7621 79.8021 31.2218C80.0271 30.6815 80.3622 30.194 80.7861 29.7903C81.6582 28.9419 82.7505 28.5176 84.0632 28.5176C84.8058 28.5064 85.5409 28.6672 86.2109 28.9877C86.8355 29.2894 87.375 29.7421 87.7807 30.3047Z" fill="#FF7009"/>
<path d="M89.4893 28.729H94.3569V29.5597H90.3377V32.2204H94.3288V33.0556H90.3377V36.3933H94.3288V37.2255H89.4952L89.4893 28.729Z" fill="#FF7009"/>
<path d="M94.9807 29.5597V28.729H99.634V29.5597H97.739V37.2225H96.8727V29.5597H94.9807Z" fill="#FF7009"/>
<path d="M100.853 28.729H101.702V32.3712H102.321C103.433 32.3712 104.231 32.4254 104.717 32.5338C105.184 32.6301 105.601 32.8927 105.889 33.2729C106.201 33.7081 106.357 34.2355 106.333 34.7703C106.353 35.3016 106.201 35.8253 105.9 36.2632C105.634 36.642 105.244 36.9159 104.797 37.0378C104.351 37.159 103.602 37.2196 102.55 37.2196H100.859L100.853 28.729ZM101.702 36.4022H102.608C103.563 36.4022 104.186 36.3568 104.476 36.2662C104.758 36.1819 105.003 36.0034 105.169 35.7606C105.35 35.4791 105.439 35.1487 105.425 34.8146C105.443 34.4425 105.329 34.0761 105.103 33.7799C104.898 33.5208 104.605 33.3465 104.28 33.2906C103.662 33.2155 103.039 33.1859 102.417 33.2019H101.702V36.4022Z" fill="#FF7009"/>
<path d="M111.298 28.729H112.164V31.9159L115.564 28.729H116.704L112.625 32.5397L117.022 37.2225H115.891L112.169 33.2655V37.2225H111.303L111.298 28.729Z" fill="#FF7009"/>
<path d="M125.162 37.2225H124.238L121.43 30.6595L118.568 37.2225H117.644L121.34 28.729H121.524L125.162 37.2225Z" fill="#FF7009"/>
<path d="M133.268 37.2225H132.381V30.7097L126.78 37.2225H126.59V28.729H127.45V35.3527L133.085 28.729H133.275L133.268 37.2225Z" fill="#FF7009"/>
<path d="M135.324 28.729H136.171V32.2914H140.496V28.729H141.345V37.2225H140.496V33.1221H136.171V37.2225H135.323L135.324 28.729Z" fill="#FF7009"/>
<path d="M150.094 37.2225H149.207V30.7097L143.606 37.2225H143.414V28.729H144.264V35.3527L149.899 28.729H150.089L150.094 37.2225Z" fill="#FF7009"/>
<path d="M152.162 28.729H153.022V31.9159L156.422 28.729H157.563L153.483 32.5397L157.881 37.2225H156.75L153.022 33.2655V37.2225H152.157L152.162 28.729Z" fill="#FF7009"/>
</svg>
